<mxfile host="www.draw.io" modified="2019-10-30T12:32:22.770Z" agent="Mozilla/5.0 (Windows NT 10.0; Win64; x64) AppleWebKit/537.36 (KHTML, like Gecko) Chrome/77.0.3865.90 Safari/537.36" etag="3V7fZBoWt6xJAabX1ZCy" version="12.1.8" type="github" pages="1">
  <diagram id="w98sDfwiebAggCBveqaD" name="Page-1">
    <mxGraphModel dx="1422" dy="713" grid="0" gridSize="10" guides="1" tooltips="1" connect="1" arrows="1" fold="1" page="0" pageScale="1" pageWidth="850" pageHeight="1100" math="0" shadow="0">
      <root>
        <mxCell id="0"/>
        <mxCell id="1" parent="0"/>
        <mxCell id="GmciB0Y8Lmc_eDe5JFvB-3" value="价格同步" style="swimlane;html=1;childLayout=stackLayout;resizeParent=1;resizeParentMax=0;horizontal=1;startSize=20;horizontalStack=0;" parent="1" vertex="1">
          <mxGeometry x="130" y="70" width="570" height="2520" as="geometry"/>
        </mxCell>
        <mxCell id="GmciB0Y8Lmc_eDe5JFvB-4" value="全量价格同步（0-8点）" style="swimlane;html=1;startSize=20;horizontal=0;" parent="GmciB0Y8Lmc_eDe5JFvB-3" vertex="1">
          <mxGeometry y="20" width="570" height="770" as="geometry"/>
        </mxCell>
        <mxCell id="GmciB0Y8Lmc_eDe5JFvB-12" style="edgeStyle=orthogonalEdgeStyle;rounded=0;orthogonalLoop=1;jettySize=auto;html=1;" parent="GmciB0Y8Lmc_eDe5JFvB-4" source="GmciB0Y8Lmc_eDe5JFvB-9" target="GmciB0Y8Lmc_eDe5JFvB-10" edge="1">
          <mxGeometry relative="1" as="geometry"/>
        </mxCell>
        <mxCell id="GmciB0Y8Lmc_eDe5JFvB-9" value="开始" style="rounded=1;whiteSpace=wrap;html=1;" parent="GmciB0Y8Lmc_eDe5JFvB-4" vertex="1">
          <mxGeometry x="100" y="40" width="60" height="40" as="geometry"/>
        </mxCell>
        <mxCell id="GmciB0Y8Lmc_eDe5JFvB-13" style="edgeStyle=orthogonalEdgeStyle;rounded=0;orthogonalLoop=1;jettySize=auto;html=1;" parent="GmciB0Y8Lmc_eDe5JFvB-4" source="GmciB0Y8Lmc_eDe5JFvB-10" target="GmciB0Y8Lmc_eDe5JFvB-11" edge="1">
          <mxGeometry relative="1" as="geometry"/>
        </mxCell>
        <mxCell id="GmciB0Y8Lmc_eDe5JFvB-19" style="edgeStyle=orthogonalEdgeStyle;rounded=0;orthogonalLoop=1;jettySize=auto;html=1;entryX=0.5;entryY=0;entryDx=0;entryDy=0;" parent="GmciB0Y8Lmc_eDe5JFvB-4" source="GmciB0Y8Lmc_eDe5JFvB-10" target="GmciB0Y8Lmc_eDe5JFvB-18" edge="1">
          <mxGeometry relative="1" as="geometry"/>
        </mxCell>
        <mxCell id="GmciB0Y8Lmc_eDe5JFvB-10" value="获取全量上线商品列表" style="rounded=0;whiteSpace=wrap;html=1;" parent="GmciB0Y8Lmc_eDe5JFvB-4" vertex="1">
          <mxGeometry x="70" y="140" width="120" height="60" as="geometry"/>
        </mxCell>
        <mxCell id="GmciB0Y8Lmc_eDe5JFvB-11" value="在线商品清单" style="shape=document;whiteSpace=wrap;html=1;boundedLbl=1;fillColor=#dae8fc;strokeColor=#6c8ebf;" parent="GmciB0Y8Lmc_eDe5JFvB-4" vertex="1">
          <mxGeometry x="310" y="102.5" width="120" height="135" as="geometry"/>
        </mxCell>
        <mxCell id="GmciB0Y8Lmc_eDe5JFvB-21" value="" style="edgeStyle=orthogonalEdgeStyle;rounded=0;orthogonalLoop=1;jettySize=auto;html=1;" parent="GmciB0Y8Lmc_eDe5JFvB-4" source="GmciB0Y8Lmc_eDe5JFvB-18" target="GmciB0Y8Lmc_eDe5JFvB-20" edge="1">
          <mxGeometry relative="1" as="geometry"/>
        </mxCell>
        <mxCell id="GmciB0Y8Lmc_eDe5JFvB-25" style="edgeStyle=orthogonalEdgeStyle;rounded=0;orthogonalLoop=1;jettySize=auto;html=1;" parent="GmciB0Y8Lmc_eDe5JFvB-4" source="GmciB0Y8Lmc_eDe5JFvB-18" target="GmciB0Y8Lmc_eDe5JFvB-23" edge="1">
          <mxGeometry relative="1" as="geometry"/>
        </mxCell>
        <mxCell id="GmciB0Y8Lmc_eDe5JFvB-18" value="获取商品列表价格" style="rounded=0;whiteSpace=wrap;html=1;" parent="GmciB0Y8Lmc_eDe5JFvB-4" vertex="1">
          <mxGeometry x="70" y="330" width="120" height="60" as="geometry"/>
        </mxCell>
        <mxCell id="GmciB0Y8Lmc_eDe5JFvB-27" value="" style="edgeStyle=orthogonalEdgeStyle;rounded=0;orthogonalLoop=1;jettySize=auto;html=1;" parent="GmciB0Y8Lmc_eDe5JFvB-4" source="GmciB0Y8Lmc_eDe5JFvB-20" target="GmciB0Y8Lmc_eDe5JFvB-26" edge="1">
          <mxGeometry relative="1" as="geometry"/>
        </mxCell>
        <mxCell id="GmciB0Y8Lmc_eDe5JFvB-29" style="edgeStyle=orthogonalEdgeStyle;rounded=0;orthogonalLoop=1;jettySize=auto;html=1;entryX=0;entryY=0.375;entryDx=0;entryDy=0;entryPerimeter=0;" parent="GmciB0Y8Lmc_eDe5JFvB-4" source="GmciB0Y8Lmc_eDe5JFvB-20" target="GmciB0Y8Lmc_eDe5JFvB-28" edge="1">
          <mxGeometry relative="1" as="geometry"/>
        </mxCell>
        <mxCell id="GmciB0Y8Lmc_eDe5JFvB-20" value="根据商品信息计算线上价格" style="rounded=0;whiteSpace=wrap;html=1;" parent="GmciB0Y8Lmc_eDe5JFvB-4" vertex="1">
          <mxGeometry x="70" y="480" width="120" height="60" as="geometry"/>
        </mxCell>
        <mxCell id="GmciB0Y8Lmc_eDe5JFvB-26" value="推送价格到前端" style="rounded=0;whiteSpace=wrap;html=1;" parent="GmciB0Y8Lmc_eDe5JFvB-4" vertex="1">
          <mxGeometry x="70" y="620" width="120" height="60" as="geometry"/>
        </mxCell>
        <mxCell id="GmciB0Y8Lmc_eDe5JFvB-23" value="SSP价格信息" style="shape=document;whiteSpace=wrap;html=1;boundedLbl=1;fillColor=#d5e8d4;strokeColor=#82b366;" parent="GmciB0Y8Lmc_eDe5JFvB-4" vertex="1">
          <mxGeometry x="310" y="320" width="120" height="80" as="geometry"/>
        </mxCell>
        <mxCell id="GmciB0Y8Lmc_eDe5JFvB-28" value="价格计算器" style="shape=document;whiteSpace=wrap;html=1;boundedLbl=1;fillColor=#e1d5e7;strokeColor=#9673a6;" parent="GmciB0Y8Lmc_eDe5JFvB-4" vertex="1">
          <mxGeometry x="310" y="480" width="120" height="80" as="geometry"/>
        </mxCell>
        <mxCell id="GmciB0Y8Lmc_eDe5JFvB-5" value="Smart变价触发增量价格变更" style="swimlane;html=1;startSize=20;horizontal=0;" parent="GmciB0Y8Lmc_eDe5JFvB-3" vertex="1">
          <mxGeometry y="790" width="570" height="780" as="geometry"/>
        </mxCell>
        <mxCell id="GmciB0Y8Lmc_eDe5JFvB-40" style="edgeStyle=orthogonalEdgeStyle;rounded=0;orthogonalLoop=1;jettySize=auto;html=1;entryX=0.5;entryY=0;entryDx=0;entryDy=0;" parent="GmciB0Y8Lmc_eDe5JFvB-5" source="GmciB0Y8Lmc_eDe5JFvB-32" target="GmciB0Y8Lmc_eDe5JFvB-34" edge="1">
          <mxGeometry relative="1" as="geometry"/>
        </mxCell>
        <mxCell id="GmciB0Y8Lmc_eDe5JFvB-32" value="推送价格变更商品信息" style="rounded=0;whiteSpace=wrap;html=1;" parent="GmciB0Y8Lmc_eDe5JFvB-5" vertex="1">
          <mxGeometry x="80" y="160" width="120" height="60" as="geometry"/>
        </mxCell>
        <mxCell id="GmciB0Y8Lmc_eDe5JFvB-33" value="在线商品清单" style="shape=document;whiteSpace=wrap;html=1;boundedLbl=1;fillColor=#dae8fc;strokeColor=#6c8ebf;" parent="GmciB0Y8Lmc_eDe5JFvB-5" vertex="1">
          <mxGeometry x="330" y="262.5" width="120" height="135" as="geometry"/>
        </mxCell>
        <mxCell id="GmciB0Y8Lmc_eDe5JFvB-41" style="edgeStyle=orthogonalEdgeStyle;rounded=0;orthogonalLoop=1;jettySize=auto;html=1;" parent="GmciB0Y8Lmc_eDe5JFvB-5" source="GmciB0Y8Lmc_eDe5JFvB-34" target="GmciB0Y8Lmc_eDe5JFvB-35" edge="1">
          <mxGeometry relative="1" as="geometry"/>
        </mxCell>
        <mxCell id="GmciB0Y8Lmc_eDe5JFvB-50" style="edgeStyle=orthogonalEdgeStyle;rounded=0;orthogonalLoop=1;jettySize=auto;html=1;" parent="GmciB0Y8Lmc_eDe5JFvB-5" source="GmciB0Y8Lmc_eDe5JFvB-34" target="GmciB0Y8Lmc_eDe5JFvB-33" edge="1">
          <mxGeometry relative="1" as="geometry"/>
        </mxCell>
        <mxCell id="GmciB0Y8Lmc_eDe5JFvB-34" value="判断商品是否是线上渠道商品" style="rounded=0;whiteSpace=wrap;html=1;" parent="GmciB0Y8Lmc_eDe5JFvB-5" vertex="1">
          <mxGeometry x="80" y="300" width="120" height="60" as="geometry"/>
        </mxCell>
        <mxCell id="GmciB0Y8Lmc_eDe5JFvB-42" style="edgeStyle=orthogonalEdgeStyle;rounded=0;orthogonalLoop=1;jettySize=auto;html=1;" parent="GmciB0Y8Lmc_eDe5JFvB-5" source="GmciB0Y8Lmc_eDe5JFvB-35" target="GmciB0Y8Lmc_eDe5JFvB-36" edge="1">
          <mxGeometry relative="1" as="geometry"/>
        </mxCell>
        <mxCell id="GmciB0Y8Lmc_eDe5JFvB-45" style="edgeStyle=orthogonalEdgeStyle;rounded=0;orthogonalLoop=1;jettySize=auto;html=1;entryX=0.017;entryY=0.425;entryDx=0;entryDy=0;entryPerimeter=0;" parent="GmciB0Y8Lmc_eDe5JFvB-5" source="GmciB0Y8Lmc_eDe5JFvB-35" target="GmciB0Y8Lmc_eDe5JFvB-38" edge="1">
          <mxGeometry relative="1" as="geometry"/>
        </mxCell>
        <mxCell id="GmciB0Y8Lmc_eDe5JFvB-35" value="根据商品信息计算线上价格" style="rounded=0;whiteSpace=wrap;html=1;" parent="GmciB0Y8Lmc_eDe5JFvB-5" vertex="1">
          <mxGeometry x="80" y="450" width="120" height="60" as="geometry"/>
        </mxCell>
        <mxCell id="GmciB0Y8Lmc_eDe5JFvB-36" value="推送价格到所有渠道" style="rounded=0;whiteSpace=wrap;html=1;" parent="GmciB0Y8Lmc_eDe5JFvB-5" vertex="1">
          <mxGeometry x="80" y="590" width="120" height="60" as="geometry"/>
        </mxCell>
        <mxCell id="GmciB0Y8Lmc_eDe5JFvB-38" value="价格计算器" style="shape=document;whiteSpace=wrap;html=1;boundedLbl=1;fillColor=#e1d5e7;strokeColor=#9673a6;" parent="GmciB0Y8Lmc_eDe5JFvB-5" vertex="1">
          <mxGeometry x="330" y="446" width="120" height="80" as="geometry"/>
        </mxCell>
        <mxCell id="GmciB0Y8Lmc_eDe5JFvB-47" style="edgeStyle=orthogonalEdgeStyle;rounded=0;orthogonalLoop=1;jettySize=auto;html=1;entryX=0.5;entryY=0;entryDx=0;entryDy=0;" parent="GmciB0Y8Lmc_eDe5JFvB-5" source="GmciB0Y8Lmc_eDe5JFvB-46" target="GmciB0Y8Lmc_eDe5JFvB-32" edge="1">
          <mxGeometry relative="1" as="geometry"/>
        </mxCell>
        <mxCell id="GmciB0Y8Lmc_eDe5JFvB-49" style="edgeStyle=orthogonalEdgeStyle;rounded=0;orthogonalLoop=1;jettySize=auto;html=1;" parent="GmciB0Y8Lmc_eDe5JFvB-5" source="GmciB0Y8Lmc_eDe5JFvB-46" target="GmciB0Y8Lmc_eDe5JFvB-48" edge="1">
          <mxGeometry relative="1" as="geometry"/>
        </mxCell>
        <mxCell id="GmciB0Y8Lmc_eDe5JFvB-46" value="SSP捕获到SMART的变价信息" style="rounded=0;whiteSpace=wrap;html=1;" parent="GmciB0Y8Lmc_eDe5JFvB-5" vertex="1">
          <mxGeometry x="80" y="12.5" width="120" height="60" as="geometry"/>
        </mxCell>
        <mxCell id="GmciB0Y8Lmc_eDe5JFvB-48" value="SSP价格信息" style="shape=document;whiteSpace=wrap;html=1;boundedLbl=1;fillColor=#d5e8d4;strokeColor=#82b366;" parent="GmciB0Y8Lmc_eDe5JFvB-5" vertex="1">
          <mxGeometry x="320" y="2.5" width="120" height="80" as="geometry"/>
        </mxCell>
        <mxCell id="GmciB0Y8Lmc_eDe5JFvB-6" value="DAS商品上架触发价格同步" style="swimlane;html=1;startSize=20;horizontal=0;" parent="GmciB0Y8Lmc_eDe5JFvB-3" vertex="1">
          <mxGeometry y="1570" width="570" height="950" as="geometry"/>
        </mxCell>
        <mxCell id="GmciB0Y8Lmc_eDe5JFvB-55" value="触发该商品价格同步" style="rounded=0;whiteSpace=wrap;html=1;" parent="GmciB0Y8Lmc_eDe5JFvB-6" vertex="1">
          <mxGeometry x="80" y="287.5" width="120" height="60" as="geometry"/>
        </mxCell>
        <mxCell id="GmciB0Y8Lmc_eDe5JFvB-59" value="获取商品价格" style="rounded=0;whiteSpace=wrap;html=1;" parent="GmciB0Y8Lmc_eDe5JFvB-6" vertex="1">
          <mxGeometry x="80" y="477.5" width="120" height="60" as="geometry"/>
        </mxCell>
        <mxCell id="GmciB0Y8Lmc_eDe5JFvB-54" style="edgeStyle=orthogonalEdgeStyle;rounded=0;orthogonalLoop=1;jettySize=auto;html=1;entryX=0.5;entryY=0;entryDx=0;entryDy=0;" parent="GmciB0Y8Lmc_eDe5JFvB-6" source="GmciB0Y8Lmc_eDe5JFvB-55" target="GmciB0Y8Lmc_eDe5JFvB-59" edge="1">
          <mxGeometry relative="1" as="geometry"/>
        </mxCell>
        <mxCell id="GmciB0Y8Lmc_eDe5JFvB-62" value="根据商品信息计算线上价格" style="rounded=0;whiteSpace=wrap;html=1;" parent="GmciB0Y8Lmc_eDe5JFvB-6" vertex="1">
          <mxGeometry x="80" y="627.5" width="120" height="60" as="geometry"/>
        </mxCell>
        <mxCell id="GmciB0Y8Lmc_eDe5JFvB-57" value="" style="edgeStyle=orthogonalEdgeStyle;rounded=0;orthogonalLoop=1;jettySize=auto;html=1;" parent="GmciB0Y8Lmc_eDe5JFvB-6" source="GmciB0Y8Lmc_eDe5JFvB-59" target="GmciB0Y8Lmc_eDe5JFvB-62" edge="1">
          <mxGeometry relative="1" as="geometry"/>
        </mxCell>
        <mxCell id="GmciB0Y8Lmc_eDe5JFvB-63" value="推送价格到前端" style="rounded=0;whiteSpace=wrap;html=1;" parent="GmciB0Y8Lmc_eDe5JFvB-6" vertex="1">
          <mxGeometry x="80" y="767.5" width="120" height="60" as="geometry"/>
        </mxCell>
        <mxCell id="GmciB0Y8Lmc_eDe5JFvB-60" value="" style="edgeStyle=orthogonalEdgeStyle;rounded=0;orthogonalLoop=1;jettySize=auto;html=1;" parent="GmciB0Y8Lmc_eDe5JFvB-6" source="GmciB0Y8Lmc_eDe5JFvB-62" target="GmciB0Y8Lmc_eDe5JFvB-63" edge="1">
          <mxGeometry relative="1" as="geometry"/>
        </mxCell>
        <mxCell id="GmciB0Y8Lmc_eDe5JFvB-64" value="SSP价格信息" style="shape=document;whiteSpace=wrap;html=1;boundedLbl=1;fillColor=#d5e8d4;strokeColor=#82b366;" parent="GmciB0Y8Lmc_eDe5JFvB-6" vertex="1">
          <mxGeometry x="320" y="467.5" width="120" height="80" as="geometry"/>
        </mxCell>
        <mxCell id="GmciB0Y8Lmc_eDe5JFvB-58" style="edgeStyle=orthogonalEdgeStyle;rounded=0;orthogonalLoop=1;jettySize=auto;html=1;" parent="GmciB0Y8Lmc_eDe5JFvB-6" source="GmciB0Y8Lmc_eDe5JFvB-59" target="GmciB0Y8Lmc_eDe5JFvB-64" edge="1">
          <mxGeometry relative="1" as="geometry"/>
        </mxCell>
        <mxCell id="GmciB0Y8Lmc_eDe5JFvB-65" value="价格计算器" style="shape=document;whiteSpace=wrap;html=1;boundedLbl=1;fillColor=#e1d5e7;strokeColor=#9673a6;" parent="GmciB0Y8Lmc_eDe5JFvB-6" vertex="1">
          <mxGeometry x="320" y="627.5" width="120" height="80" as="geometry"/>
        </mxCell>
        <mxCell id="GmciB0Y8Lmc_eDe5JFvB-61" style="edgeStyle=orthogonalEdgeStyle;rounded=0;orthogonalLoop=1;jettySize=auto;html=1;entryX=0;entryY=0.375;entryDx=0;entryDy=0;entryPerimeter=0;" parent="GmciB0Y8Lmc_eDe5JFvB-6" source="GmciB0Y8Lmc_eDe5JFvB-62" target="GmciB0Y8Lmc_eDe5JFvB-65" edge="1">
          <mxGeometry relative="1" as="geometry"/>
        </mxCell>
        <mxCell id="GmciB0Y8Lmc_eDe5JFvB-68" style="edgeStyle=orthogonalEdgeStyle;rounded=0;orthogonalLoop=1;jettySize=auto;html=1;" parent="GmciB0Y8Lmc_eDe5JFvB-6" source="GmciB0Y8Lmc_eDe5JFvB-66" target="GmciB0Y8Lmc_eDe5JFvB-67" edge="1">
          <mxGeometry relative="1" as="geometry"/>
        </mxCell>
        <mxCell id="GmciB0Y8Lmc_eDe5JFvB-66" value="DAS上架门店商品" style="rounded=0;whiteSpace=wrap;html=1;" parent="GmciB0Y8Lmc_eDe5JFvB-6" vertex="1">
          <mxGeometry x="80" y="40" width="120" height="60" as="geometry"/>
        </mxCell>
        <mxCell id="GmciB0Y8Lmc_eDe5JFvB-70" style="edgeStyle=orthogonalEdgeStyle;rounded=0;orthogonalLoop=1;jettySize=auto;html=1;" parent="GmciB0Y8Lmc_eDe5JFvB-6" source="GmciB0Y8Lmc_eDe5JFvB-67" target="GmciB0Y8Lmc_eDe5JFvB-69" edge="1">
          <mxGeometry relative="1" as="geometry"/>
        </mxCell>
        <mxCell id="GmciB0Y8Lmc_eDe5JFvB-71" style="edgeStyle=orthogonalEdgeStyle;rounded=0;orthogonalLoop=1;jettySize=auto;html=1;entryX=0.5;entryY=0;entryDx=0;entryDy=0;" parent="GmciB0Y8Lmc_eDe5JFvB-6" source="GmciB0Y8Lmc_eDe5JFvB-67" target="GmciB0Y8Lmc_eDe5JFvB-55" edge="1">
          <mxGeometry relative="1" as="geometry"/>
        </mxCell>
        <mxCell id="GmciB0Y8Lmc_eDe5JFvB-67" value="更新在线商品清单" style="rounded=0;whiteSpace=wrap;html=1;" parent="GmciB0Y8Lmc_eDe5JFvB-6" vertex="1">
          <mxGeometry x="80" y="140" width="120" height="60" as="geometry"/>
        </mxCell>
        <mxCell id="GmciB0Y8Lmc_eDe5JFvB-69" value="在线商品清单" style="shape=document;whiteSpace=wrap;html=1;boundedLbl=1;fillColor=#dae8fc;strokeColor=#6c8ebf;" parent="GmciB0Y8Lmc_eDe5JFvB-6" vertex="1">
          <mxGeometry x="320" y="102.5" width="120" height="135" as="geometry"/>
        </mxCell>
        <mxCell id="GmciB0Y8Lmc_eDe5JFvB-17" value="&lt;span style=&quot;white-space: normal&quot;&gt;aloha-stock: product_stock&lt;/span&gt;&lt;br style=&quot;white-space: normal&quot;&gt;&lt;br style=&quot;white-space: normal&quot;&gt;&lt;span style=&quot;white-space: normal&quot;&gt;Channel:07--jddj&lt;/span&gt;&lt;br style=&quot;white-space: normal&quot;&gt;&lt;span style=&quot;white-space: normal&quot;&gt;12--wmdj&lt;/span&gt;&lt;br style=&quot;white-space: normal&quot;&gt;&lt;span style=&quot;white-space: normal&quot;&gt;16--全城配&lt;/span&gt;&lt;br style=&quot;white-space: normal&quot;&gt;&lt;br style=&quot;white-space: normal&quot;&gt;&lt;br style=&quot;white-space: normal&quot;&gt;&lt;span style=&quot;white-space: normal&quot;&gt;status: 0下架&lt;/span&gt;&lt;br style=&quot;white-space: normal&quot;&gt;&lt;span style=&quot;white-space: normal&quot;&gt;1上架&lt;/span&gt;" style="shape=note;whiteSpace=wrap;html=1;backgroundOutline=1;darkOpacity=0.05;fillColor=#dae8fc;strokeColor=#6c8ebf;align=left;" parent="1" vertex="1">
          <mxGeometry x="750" y="150" width="130" height="180" as="geometry"/>
        </mxCell>
        <mxCell id="GmciB0Y8Lmc_eDe5JFvB-24" value="商品中心价格信息&lt;br&gt;&lt;br&gt;&lt;br&gt;&lt;a href=&quot;http://esb.cn.wal-mart.com/doc.html&quot;&gt;http://esb.cn.wal-mart.com/doc.html&lt;/a&gt;" style="shape=note;whiteSpace=wrap;html=1;backgroundOutline=1;darkOpacity=0.05;fillColor=#d5e8d4;strokeColor=#82b366;align=left;" parent="1" vertex="1">
          <mxGeometry x="750" y="380" width="130" height="190" as="geometry"/>
        </mxCell>
        <mxCell id="GmciB0Y8Lmc_eDe5JFvB-30" value="价格计算逻辑&lt;br&gt;&lt;br&gt;如果商品是不是散装商品，线上价格是SSP的priceWithTax&lt;br&gt;&lt;br&gt;如果商品是散装商品&lt;br&gt;线上价格=SSP的priceWithTax * stock库的gross_weight * stock库的markup&lt;br&gt;&lt;br&gt;散装商品的条件是ssp中的scalable是1且scalePackageCode是00" style="shape=note;whiteSpace=wrap;html=1;backgroundOutline=1;darkOpacity=0.05;fillColor=#e1d5e7;strokeColor=#9673a6;align=left;" parent="1" vertex="1">
          <mxGeometry x="750" y="620" width="140" height="310" as="geometry"/>
        </mxCell>
        <mxCell id="S8jPYhHjZYIghbsNe_rC-5" style="edgeStyle=orthogonalEdgeStyle;rounded=0;orthogonalLoop=1;jettySize=auto;html=1;" edge="1" parent="1" source="S8jPYhHjZYIghbsNe_rC-1" target="S8jPYhHjZYIghbsNe_rC-2">
          <mxGeometry relative="1" as="geometry"/>
        </mxCell>
        <mxCell id="S8jPYhHjZYIghbsNe_rC-1" value="SMART价格" style="rounded=0;whiteSpace=wrap;html=1;fillColor=#f5f5f5;strokeColor=#666666;fontColor=#333333;" vertex="1" parent="1">
          <mxGeometry x="80" y="2720" width="120" height="60" as="geometry"/>
        </mxCell>
        <mxCell id="S8jPYhHjZYIghbsNe_rC-6" style="edgeStyle=orthogonalEdgeStyle;rounded=0;orthogonalLoop=1;jettySize=auto;html=1;" edge="1" parent="1" source="S8jPYhHjZYIghbsNe_rC-2" target="S8jPYhHjZYIghbsNe_rC-3">
          <mxGeometry relative="1" as="geometry"/>
        </mxCell>
        <mxCell id="S8jPYhHjZYIghbsNe_rC-2" value="商品中心价格" style="rounded=0;whiteSpace=wrap;html=1;fillColor=#dae8fc;strokeColor=#6c8ebf;" vertex="1" parent="1">
          <mxGeometry x="310" y="2720" width="120" height="60" as="geometry"/>
        </mxCell>
        <mxCell id="S8jPYhHjZYIghbsNe_rC-7" style="edgeStyle=orthogonalEdgeStyle;rounded=0;orthogonalLoop=1;jettySize=auto;html=1;entryX=0;entryY=0.5;entryDx=0;entryDy=0;" edge="1" parent="1" source="S8jPYhHjZYIghbsNe_rC-3" target="S8jPYhHjZYIghbsNe_rC-4">
          <mxGeometry relative="1" as="geometry"/>
        </mxCell>
        <mxCell id="S8jPYhHjZYIghbsNe_rC-3" value="线上商品清单信息（根据此信息计算线上价格）" style="rounded=0;whiteSpace=wrap;html=1;fillColor=#d5e8d4;strokeColor=#82b366;" vertex="1" parent="1">
          <mxGeometry x="555" y="2720" width="120" height="60" as="geometry"/>
        </mxCell>
        <mxCell id="S8jPYhHjZYIghbsNe_rC-4" value="线上价格" style="rounded=0;whiteSpace=wrap;html=1;fillColor=#ffe6cc;strokeColor=#d79b00;" vertex="1" parent="1">
          <mxGeometry x="800" y="2720" width="120" height="60" as="geometry"/>
        </mxCell>
      </root>
    </mxGraphModel>
  </diagram>
</mxfile>
